# xmcd
#
# Track frame offsets:
#	182
#	14502
#	35980
#
# Disc length: 745 seconds
#
# Revision: 0
# Processed by: cddbd v1.4PL0 Copyright (c) Steve Scherf et al.
# Submitted via: audiograbber 1.82.01
#
DISCID=2302e703
DTITLE=Happiness feat. Tania Dee - Feeling Free (Caribbean Sea)
DYEAR=1994
DGENRE=
TTITLE0=Feeling Free (Short Beach Mix)
TTITLE1=Feeling Free (Long Beach Mix)
TTITLE2=Feeling Free (Trance Trip)
EXTD=
EXTT0=
EXTT1=
EXTT2=
PLAYORDER=
